{
	"asset":{
		"generator":"Khronos glTF Blender I/O v3.5.30",
		"version":"2.0"
	},
	"scene":0,
	"scenes":[
		{
			"name":"Scene",
			"nodes":[
				0,
				1
			]
		}
	],
	"nodes":[
		{
			"mesh":0,
			"name":"BezierCurve",
			"translation":[
				2.794064998626709,
				0.06018231436610222,
				0.11991310119628906
			]
		},
		{
			"name":"BezierCurve.001"
		}
	],
	"meshes":[
		{
			"name":"BezierCurve",
			"primitives":[
				{
					"attributes":{
						"POSITION":0,
						"TEXCOORD_0":1,
						"NORMAL":2
					},
					"indices":3
				}
			]
		}
	],
	"accessors":[
		{
			"bufferView":0,
			"componentType":5126,
			"count":702,
			"max":[
				-2.3294477462768555,
				0.03999999910593033,
				0.5038483738899231
			],
			"min":[
				-3.540925979614258,
				-0.03999999910593033,
				-1.1988030672073364
			],
			"type":"VEC3"
		},
		{
			"bufferView":1,
			"componentType":5126,
			"count":702,
			"type":"VEC2"
		},
		{
			"bufferView":2,
			"componentType":5126,
			"count":702,
			"type":"VEC3"
		},
		{
			"bufferView":3,
			"componentType":5123,
			"count":2088,
			"type":"SCALAR"
		}
	],
	"bufferViews":[
		{
			"buffer":0,
			"byteLength":8424,
			"byteOffset":0,
			"target":34962
		},
		{
			"buffer":0,
			"byteLength":5616,
			"byteOffset":8424,
			"target":34962
		},
		{
			"buffer":0,
			"byteLength":8424,
			"byteOffset":14040,
			"target":34962
		},
		{
			"buffer":0,
			"byteLength":4176,
			"byteOffset":22464,
			"target":34963
		}
	],
	"buffers":[
		{
			"byteLength":26640,
			"uri":"data:application/octet-stream;base64,"
		}
	]
}
