<svg width="40" height="40" viewBox="0 0 40 40" fill="none" xmlns="http://www.w3.org/2000/svg">
<g id="icone_machine">
<path id="Vector" d="M19.9999 31.7568C23.118 31.7568 26.1084 30.5181 28.3132 28.3133C30.518 26.1085 31.7567 23.1181 31.7567 20C31.7567 16.8819 30.518 13.8915 28.3132 11.6867C26.1084 9.48191 23.118 8.24326 19.9999 8.24326C16.8818 8.24326 13.8915 9.48191 11.6866 11.6867C9.48182 13.8915 8.24316 16.8819 8.24316 20C8.24316 23.1181 9.48182 26.1085 11.6866 28.3133C13.8915 30.5181 16.8818 31.7568 19.9999 31.7568Z" stroke="#FAFFF3" stroke-width="1.6" stroke-linecap="square"/>
<path id="Vector_2" d="M19.9999 22.8378C20.7526 22.8378 21.4744 22.5388 22.0066 22.0066C22.5388 21.4744 22.8378 20.7526 22.8378 20C22.8378 19.2474 22.5388 18.5255 22.0066 17.9933C21.4744 17.4611 20.7526 17.1622 19.9999 17.1622C19.2473 17.1622 18.5255 17.4611 17.9933 17.9933C17.4611 18.5255 17.1621 19.2474 17.1621 20C17.1621 20.7526 17.4611 21.4744 17.9933 22.0066C18.5255 22.5388 19.2473 22.8378 19.9999 22.8378Z" stroke="#FAFFF3" stroke-width="1.6" stroke-linecap="square"/>
<path id="Vector_3" d="M20.4053 5.00011V8.24335" stroke="#FAFFF3" stroke-width="1.6" stroke-linecap="square"/>
<path id="Vector_4" d="M20.4053 35V31.7568" stroke="#FAFFF3" stroke-width="1.6" stroke-linecap="square"/>
<path id="Vector_5" d="M27.7027 33.3785L26.0811 30.1352" stroke="#FAFFF3" stroke-width="1.6" stroke-linecap="square"/>
<path id="Vector_6" d="M18.7834 17.1622L12.2969 6.62167" stroke="#FAFFF3" stroke-width="1.6" stroke-linecap="square"/>
<path id="Vector_7" d="M33.378 27.7027L30.1348 26.0811" stroke="#FAFFF3" stroke-width="1.6" stroke-linecap="square"/>
<path id="Vector_8" d="M6.62109 12.2974L9.86434 13.9191" stroke="#FAFFF3" stroke-width="1.6" stroke-linecap="square"/>
<path id="Vector_9" d="M22.8379 20.4055H35.0001" stroke="#FAFFF3" stroke-width="1.6" stroke-linecap="square"/>
<path id="Vector_10" d="M5 20.4055H8.24324" stroke="#FAFFF3" stroke-width="1.6" stroke-linecap="square"/>
<path id="Vector_11" d="M33.378 12.2974L30.1348 13.9191" stroke="#FAFFF3" stroke-width="1.6" stroke-linecap="square"/>
<path id="Vector_12" d="M6.62109 27.7027L9.86434 26.0811" stroke="#FAFFF3" stroke-width="1.6" stroke-linecap="square"/>
<path id="Vector_13" d="M27.7027 6.62167L26.0811 9.86492" stroke="#FAFFF3" stroke-width="1.6" stroke-linecap="square"/>
<path id="Vector_14" d="M18.7834 22.8379L12.2969 33.3784" stroke="#FAFFF3" stroke-width="1.6" stroke-linecap="square"/>
</g>
</svg>
