<svg width="40" height="40" viewBox="0 0 40 40" fill="none" xmlns="http://www.w3.org/2000/svg">
<path d="M20 35C28.2843 35 35 28.2843 35 20C35 11.7157 28.2843 5 20 5C11.7157 5 5 11.7157 5 20C5 28.2843 11.7157 35 20 35Z" stroke="#FAFFF3" stroke-width="1.6" stroke-linecap="round" stroke-linejoin="round"/>
<path d="M15.6348 15.5C15.9874 14.4975 16.6835 13.6522 17.5997 13.1137C18.5159 12.5752 19.5931 12.3784 20.6405 12.5581C21.688 12.7377 22.638 13.2823 23.3224 14.0953C24.0068 14.9083 24.3813 15.9373 24.3798 17C24.3798 19.2709 21.8013 20.6823 20.548 21.2342C20.1541 21.4077 19.8798 21.7903 19.8798 22.2208V24" stroke="#FAFFF3" stroke-width="1.6" stroke-linecap="square" stroke-linejoin="round"/>
<path d="M20 27.5H20.015" stroke="#FAFFF3" stroke-width="1.6" stroke-linecap="square" stroke-linejoin="round"/>
</svg>
