<svg width="123" height="30" viewBox="0 0 123 30" fill="none" xmlns="http://www.w3.org/2000/svg">
<g id="Logo" clip-path="url(#clip0_234_336)">
<path id="Vector" d="M29.6062 28.3569C29.2843 28.1621 29.0514 27.8953 28.9116 27.5565C28.7422 27.1076 28.6575 26.2775 28.6575 25.0706V16.8125C28.6575 15.072 28.5178 13.7804 28.234 12.9376C27.8106 11.7307 27.2558 10.8667 26.5697 10.3458C25.8794 9.82496 25.0579 9.56663 24.105 9.56663C22.2247 9.56663 20.2428 10.9303 18.1635 13.6533V9.52428C16.4822 9.52428 11.1166 8.55872 10.6296 10.7778C10.3289 12.1542 12.0567 15.3134 9.90966 15.8724C8.93563 16.1265 8.07171 15.2456 7.45765 14.2038V5.18351C7.45765 3.44297 7.61011 2.33343 7.91926 1.85488C8.3978 1.15189 9.16855 0.800395 10.2357 0.800395H11.2055V0H0V0.800395H0.927442C1.54574 0.800395 2.13439 0.982496 2.69763 1.3467C3.09147 1.60079 3.35827 1.90994 3.49802 2.27414C3.66742 2.75268 3.75212 3.72247 3.75212 5.18351V24.1008C3.75212 25.8413 3.59543 26.9509 3.29051 27.4294C2.78656 28.1324 1.99887 28.4839 0.931677 28.4839H0V29.2843H11.2055V28.4839H10.2357C9.61745 28.4839 9.0415 28.3145 8.50791 27.98C8.08865 27.7005 7.80491 27.3913 7.66516 27.0525C7.52541 26.574 7.45342 25.5915 7.45342 24.105V16.046C7.69904 16.4568 7.99125 16.8379 8.3258 17.1852C10.367 19.3027 13.1705 17.6892 12.0864 14.8899C11.773 14.0768 11.3072 13.3018 11.2098 12.4337C10.998 10.5872 12.6369 9.8419 14.1191 10.6677C14.3732 10.8075 14.5807 11.0743 14.7501 11.4681C14.8348 11.7476 14.9026 12.2431 14.9619 12.9418V26.0023C14.9068 26.7053 14.8348 27.1965 14.7501 27.476C14.5807 27.8698 14.369 28.1366 14.1191 28.2764C13.6702 28.5305 13.0519 28.6575 12.2643 28.6575V29.4156H21.0263V28.6575C20.1285 28.6575 19.4932 28.5474 19.129 28.3187C18.9893 28.2637 18.8749 28.1917 18.7902 28.107C18.6208 27.9376 18.4811 27.7259 18.371 27.476C18.2312 27.1669 18.1592 26.3665 18.1592 25.0748V14.8772C19.6753 13.0519 21.2084 12.1372 22.7499 12.1372C23.7324 12.1372 24.4353 12.5395 24.8546 13.3399C25.2781 14.1403 25.4856 15.4108 25.4856 17.1513V25.0706C25.4856 26.1674 25.456 26.8281 25.4009 27.0525C25.2612 27.5861 25.0282 27.9884 24.7064 28.251C24.3845 28.5178 23.8128 28.6533 22.9997 28.6533H22.6186V29.4114H31.3382V28.6533C30.4955 28.6533 29.9111 28.5559 29.5892 28.3569H29.6062Z" fill="#FAFFF3"/>
<path id="Vector_2" d="M121.148 28.3569C121.47 28.5517 122.054 28.6533 122.897 28.6533V29.4114H114.177V28.6533H114.559C115.372 28.6533 115.943 28.5221 116.265 28.251C116.587 27.9842 116.82 27.5861 116.96 27.0525C117.015 26.8281 117.044 26.1675 117.044 25.0706V17.1514C117.044 15.4108 116.833 14.1403 116.413 13.34C115.994 12.5396 115.291 12.1372 114.309 12.1372C112.763 12.1372 111.234 13.052 109.718 14.8772V25.0749C109.718 26.3665 109.786 27.1669 109.93 27.476C110.04 27.7301 110.184 27.9376 110.349 28.107C110.434 28.1917 110.544 28.2637 110.688 28.3188C111.052 28.5432 111.683 28.6576 112.585 28.6576V29.4156H103.823V28.6576C104.611 28.6576 105.229 28.5305 105.678 28.2764C105.932 28.1367 106.14 27.8699 106.309 27.476C106.394 27.1965 106.461 26.7053 106.521 26.0023V12.9419C106.466 12.2389 106.394 11.7476 106.309 11.4681C106.14 11.0743 105.928 10.8075 105.678 10.6677C104.196 9.84193 102.561 10.5915 102.769 12.4337C102.866 13.3018 103.332 14.0768 103.645 14.8899C103.959 15.703 104.107 16.6813 103.62 17.4055C103.04 18.2567 101.684 18.3541 100.884 17.7061C100.084 17.0582 99.8592 15.8555 100.211 14.8857C99.9947 15.7073 101.312 16.2282 101.96 15.6776C102.608 15.1271 102.633 14.1361 102.468 13.3018C102.303 12.4676 102.002 11.6164 102.184 10.7863C102.671 8.56723 108.037 9.53278 109.718 9.53278V13.6618C111.797 10.9388 113.775 9.57513 115.66 9.57513C116.612 9.57513 117.434 9.83346 118.124 10.3544C118.81 10.8752 119.365 11.7392 119.789 12.9461C120.068 13.7889 120.212 15.0805 120.212 16.821V25.0791C120.212 26.286 120.297 27.1161 120.466 27.565C120.606 27.9038 120.839 28.1706 121.161 28.3654L121.148 28.3569Z" fill="#FAFFF3"/>
<path id="Vector_3" d="M42.3832 10.3248V9.5244H48.1553V10.3248C47.482 10.3798 47.0161 10.5365 46.7663 10.7864C46.3174 11.2057 45.9108 11.9256 45.5424 12.9335L39.2663 29.9959H38.5082L32.1898 13.2257C31.9103 12.438 31.6435 11.879 31.3894 11.5402C31.1353 11.2014 30.8134 10.9219 30.4196 10.6975C30.1951 10.5577 29.7589 10.4307 29.1152 10.3163V9.51593H37.4156V10.3163H36.8693C36.3654 10.3163 35.9842 10.4518 35.7301 10.7144C35.476 10.9812 35.349 11.3539 35.349 11.8324C35.349 12.3364 35.476 12.942 35.7301 13.645L39.8592 24.6006L43.9882 13.2257C44.2677 12.4126 44.4074 11.7943 44.4074 11.3708C44.4074 11.176 44.3524 11.0066 44.238 10.8669C44.0983 10.6424 43.9204 10.4942 43.7129 10.4264C43.5012 10.3544 43.0607 10.3206 42.3874 10.3206L42.3832 10.3248Z" fill="#FAFFF3"/>
<path id="Vector_4" d="M61.4056 27.5354C61.5326 27.8572 61.7782 28.124 62.1425 28.3358C62.5067 28.5475 62.8878 28.6873 63.0233 28.5814L64.0397 29.4115C63.7009 29.4665 63.2732 29.5173 62.7565 29.5597C62.2356 29.602 61.4776 29.5681 60.4824 29.4538C59.4872 29.3437 58.8477 29.0896 58.564 28.6958C58.2252 28.1918 58.0431 27.5015 58.0177 26.6291C56.2178 28.1749 55.0829 29.06 54.6043 29.2844C53.931 29.6486 53.1983 29.8307 52.4149 29.8307C51.1783 29.8307 50.1662 29.3733 49.3827 28.4628C48.595 27.5481 48.2012 26.3496 48.2012 24.8589C48.2012 23.9061 48.396 23.0888 48.7898 22.4154C49.2938 21.4626 50.2 20.5605 51.5086 19.7178C52.813 18.875 54.9855 17.8502 58.0177 16.6432V15.8852C58.0177 13.9456 57.7382 12.6201 57.1749 11.9044C56.6117 11.1887 55.7986 10.8287 54.7314 10.8287C53.9437 10.8287 53.3127 11.0659 52.8341 11.5444C52.4403 11.9086 52.2031 12.3321 52.1185 12.8064C52.0634 13.1452 52.1057 13.4374 52.2455 13.6915C52.4403 14.115 52.7876 14.3606 53.2788 14.4284C53.7701 14.5004 54.4942 14.2802 55.4471 13.7762C55.5021 14.5089 55.3285 15.2161 54.922 15.9021C54.5154 16.5924 54.003 17.1091 53.3847 17.4606C52.7664 17.8121 52.093 17.9222 51.3604 17.7994C50.6278 17.6723 49.9968 17.2573 49.4632 16.5543C49.0693 15.9911 48.8745 15.2754 48.8745 14.4072C48.8745 13.2003 49.4378 12.0907 50.56 11.0786C51.6823 10.0665 53.2703 9.5625 55.32 9.5625C56.8912 9.5625 58.1871 9.842 59.195 10.4052C59.953 10.8541 60.4993 11.5444 60.8381 12.4719C61.0922 13.0605 61.2192 14.2971 61.2192 16.1816V23.0083H61.1769L61.2192 25.0749C61.2192 26.3962 61.2828 27.2178 61.4098 27.5396L61.4056 27.5354ZM58.0134 25.2824V17.9095C56.0738 18.7522 54.8245 19.3578 54.2655 19.722C53.2534 20.3403 52.5292 20.984 52.0973 21.6616C51.6653 22.3392 51.4451 23.0676 51.4451 23.851C51.4451 24.8632 51.7204 25.7059 52.2667 26.3793C52.813 27.0526 53.4524 27.3914 54.1851 27.3914C55.1676 27.3914 56.4465 26.6884 58.0177 25.2867L58.0134 25.2824Z" fill="#FAFFF3"/>
<path id="Vector_5" d="M65.162 22.8179C65.1662 22.8433 65.2679 22.9619 65.2721 22.9915L65.162 22.8179ZM64.7766 23.6267C64.7385 23.5463 64.3701 23.3727 64.2007 23.5844C64.0059 23.83 63.8788 24.2408 64.1498 25.6087C64.3362 26.5488 64.7512 27.7727 64.6792 28.5858C64.5733 29.7377 63.2393 29.6234 62.2441 28.9754C63.0911 28.9585 63.5019 27.9082 63.5612 27.1375C63.6247 26.2947 63.0276 25.5452 62.6973 24.7659C62.367 23.9867 62.1891 23.0381 62.6592 22.3351C64.6665 19.3368 66.64 26.4853 67.4531 27.2857C68.4652 28.2809 69.6002 28.7806 70.8622 28.7806C71.7303 28.7806 72.4502 28.4926 73.0092 27.9167C73.5725 27.3408 73.852 26.6589 73.852 25.8712C73.852 24.8887 73.5428 24.0672 72.9245 23.4065C72.3063 22.7459 71.0654 21.9116 69.1978 20.8995C67.3302 19.8873 66.1148 18.9768 65.5516 18.1595C64.9629 17.3718 64.6665 16.3639 64.6665 15.1273C64.6665 13.5562 65.1662 12.2349 66.1614 11.1677C67.1566 10.1005 68.444 9.56689 70.0152 9.56689C70.7182 9.56689 71.5609 9.72359 72.5434 10.0285C73.1913 10.2529 73.6233 10.3673 73.8478 10.3673C74.0426 10.3673 74.2077 10.3207 74.3305 10.2191C74.4576 10.1217 74.5889 9.90145 74.7328 9.56689H75.3639V16.1395H74.7328C74.2543 14.0601 73.6318 12.6499 72.8568 11.9046C72.0818 11.1592 71.1078 10.7865 69.9305 10.7865C69.0327 10.7865 68.3085 11.0449 67.7622 11.5658C67.2159 12.0867 66.9406 12.6668 66.9406 13.3148C66.9406 14.1025 67.1524 14.7758 67.5716 15.3391C67.9655 15.9023 68.7659 16.5037 69.9728 17.1516L72.7975 18.6677C75.4104 20.044 76.7148 21.8693 76.7148 24.1434C76.7148 25.9136 76.105 27.3323 74.8811 28.3995C73.6614 29.4667 72.302 30.0003 70.8156 30.0003C69.7187 30.0003 68.4948 29.7504 67.11 29.3693C66.8051 29.2846 66.5426 29.221 66.2249 29.1702C65.8226 29.1067 65.5135 28.7848 65.4584 28.3825L64.7724 23.6225L64.7766 23.6267Z" fill="#FAFFF3"/>
<path id="Vector_6" d="M83.0848 17.4437V25.0707C83.0848 26.2777 83.161 27.0781 83.3177 27.4719C83.4701 27.8658 83.7115 28.1622 84.0334 28.357C84.3552 28.5518 84.9269 28.6534 85.74 28.6534V29.4115H77.1855V28.6534C78.0537 28.6534 78.6381 28.5645 78.9346 28.3782C79.231 28.1961 79.4597 27.8954 79.6291 27.4719C79.7985 27.0484 79.8832 26.248 79.8832 25.0707V12.9377C79.8535 12.2347 79.7858 11.7435 79.6714 11.464C79.502 11.0702 79.2903 10.8034 79.0404 10.6636C78.5915 10.4095 77.9732 10.2825 77.1855 10.2825V9.52441H85.9475V10.2825C85.0497 10.2825 84.4145 10.3883 84.0503 10.6001C83.6861 10.8118 83.432 11.0786 83.2923 11.4005C83.1525 11.7223 83.0805 12.5439 83.0805 13.8652V17.4479L83.0848 17.4437Z" fill="#FAFFF3"/>
<path id="Vector_7" d="M101.244 12.8954C102.62 14.7757 103.31 16.9566 103.31 19.4256C103.31 21.1407 102.929 22.8812 102.171 24.6514C101.413 26.4216 100.371 27.7556 99.0543 28.6534C97.7331 29.5512 96.2593 30.0001 94.6289 30.0001C91.9609 30.0001 89.8392 28.8482 88.2681 26.5444C86.9468 24.5794 86.2861 22.3858 86.2861 19.9719C86.2861 18.2017 86.6884 16.44 87.4846 14.6825C88.285 12.9292 89.3395 11.6334 90.6438 10.8076C91.9482 9.97752 93.3457 9.5625 94.8364 9.5625C97.5044 9.5625 99.6388 10.672 101.24 12.8911L101.244 12.8954ZM98.525 26.8409C99.3254 25.7186 99.7235 23.779 99.7235 21.0264C99.7235 17.6003 99.0501 14.9027 97.6992 12.9377C96.8014 11.591 95.6325 10.9134 94.2012 10.9134C93.5278 10.9134 92.846 11.1379 92.1557 11.5868C91.4654 12.0357 90.9106 12.8149 90.4914 13.9244C90.0679 15.034 89.8604 16.4611 89.8604 18.2017C89.8604 21.0094 90.3728 23.4318 91.3977 25.4688C92.4225 27.5058 93.765 28.5221 95.4208 28.5221C96.6828 28.5221 97.7161 27.9589 98.5165 26.8366L98.525 26.8409Z" fill="#FAFFF3"/>
<path id="Vector_8" d="M121.148 28.3569C121.47 28.5517 122.054 28.6533 122.897 28.6533V29.4113H114.177V28.6533H114.558C115.371 28.6533 115.943 28.522 116.265 28.251C116.587 27.9842 116.82 27.5861 116.96 27.0525C117.015 26.8281 117.044 26.1674 117.044 25.0706V17.1513C117.044 15.4108 116.833 14.1403 116.413 13.3399C115.99 12.5395 115.291 12.1372 114.309 12.1372C112.763 12.1372 111.234 13.0519 109.718 14.8772V25.0748C109.718 26.3664 109.79 27.1668 109.93 27.476C110.04 27.7301 110.184 27.9376 110.353 28.107C110.438 28.1917 110.548 28.2637 110.692 28.3187C111.056 28.5432 111.687 28.6575 112.589 28.6575V29.4156H103.827V28.6575C104.615 28.6575 105.233 28.5305 105.682 28.2764C105.936 28.1366 106.144 27.8698 106.313 27.476C106.398 27.1965 106.465 26.7052 106.525 26.0022V12.9418C106.47 12.2388 106.398 11.7476 106.313 11.4681C106.144 11.0742 105.932 10.8074 105.682 10.6677C105.233 10.4136 104.615 10.2866 103.827 10.2866V9.5285H109.726V13.6575C111.806 10.9345 113.783 9.57085 115.668 9.57085C116.621 9.57085 117.442 9.82918 118.133 10.3501C118.819 10.871 119.373 11.7349 119.797 12.9418C120.076 13.7846 120.22 15.0762 120.22 16.8168V25.0748C120.22 26.2818 120.305 27.1118 120.475 27.5607C120.614 27.8995 120.847 28.1663 121.169 28.3611L121.148 28.3569Z" fill="#FAFFF3"/>
</g>
<defs>
<clipPath id="clip0_234_336">
<rect width="122.897" height="30" fill="white"/>
</clipPath>
</defs>
</svg>
